<mxfile host="app.diagrams.net" modified="2023-03-14T09:14:57.764Z" agent="5.0 (Windows NT 10.0; Win64; x64) AppleWebKit/537.36 (KHTML, like Gecko) Chrome/99.0.4844.84 Safari/537.36 HBPC/12.1.2.300" etag="uHcLRs2ixUUzSkOpbXGb" version="21.0.6" type="github">
  <diagram id="C5RBs43oDa-KdzZeNtuy" name="Page-1">
    <mxGraphModel dx="1434" dy="699" grid="1" gridSize="10" guides="1" tooltips="1" connect="1" arrows="1" fold="1" page="1" pageScale="1" pageWidth="827" pageHeight="1169" math="0" shadow="0">
      <root>
        <mxCell id="WIyWlLk6GJQsqaUBKTNV-0" />
        <mxCell id="WIyWlLk6GJQsqaUBKTNV-1" parent="WIyWlLk6GJQsqaUBKTNV-0" />
        <mxCell id="iTxTnmrPjzGDXyez09_j-1" value="" style="edgeStyle=orthogonalEdgeStyle;rounded=0;orthogonalLoop=1;jettySize=auto;html=1;entryX=0;entryY=0.5;entryDx=0;entryDy=0;" edge="1" parent="WIyWlLk6GJQsqaUBKTNV-1" source="iTxTnmrPjzGDXyez09_j-3" target="iTxTnmrPjzGDXyez09_j-5">
          <mxGeometry relative="1" as="geometry" />
        </mxCell>
        <mxCell id="iTxTnmrPjzGDXyez09_j-2" value="" style="edgeStyle=orthogonalEdgeStyle;rounded=0;orthogonalLoop=1;jettySize=auto;html=1;entryX=0;entryY=0.5;entryDx=0;entryDy=0;" edge="1" parent="WIyWlLk6GJQsqaUBKTNV-1" source="iTxTnmrPjzGDXyez09_j-3" target="iTxTnmrPjzGDXyez09_j-9">
          <mxGeometry relative="1" as="geometry" />
        </mxCell>
        <mxCell id="iTxTnmrPjzGDXyez09_j-29" value="" style="edgeStyle=orthogonalEdgeStyle;rounded=0;orthogonalLoop=1;jettySize=auto;html=1;entryX=0;entryY=0.5;entryDx=0;entryDy=0;" edge="1" parent="WIyWlLk6GJQsqaUBKTNV-1" source="iTxTnmrPjzGDXyez09_j-3" target="iTxTnmrPjzGDXyez09_j-28">
          <mxGeometry relative="1" as="geometry" />
        </mxCell>
        <mxCell id="iTxTnmrPjzGDXyez09_j-3" value="用户入场&lt;br&gt;（确定持卡人外的消费人数）" style="rounded=0;whiteSpace=wrap;html=1;" vertex="1" parent="WIyWlLk6GJQsqaUBKTNV-1">
          <mxGeometry x="20" y="310" width="120" height="60" as="geometry" />
        </mxCell>
        <mxCell id="iTxTnmrPjzGDXyez09_j-58" value="" style="edgeStyle=orthogonalEdgeStyle;rounded=0;orthogonalLoop=1;jettySize=auto;html=1;" edge="1" parent="WIyWlLk6GJQsqaUBKTNV-1" source="iTxTnmrPjzGDXyez09_j-5" target="iTxTnmrPjzGDXyez09_j-57">
          <mxGeometry relative="1" as="geometry" />
        </mxCell>
        <mxCell id="iTxTnmrPjzGDXyez09_j-5" value="通过立式自主机办理（通过人脸识别选择扣费卡或刷卡）" style="whiteSpace=wrap;html=1;rounded=0;" vertex="1" parent="WIyWlLk6GJQsqaUBKTNV-1">
          <mxGeometry x="198" y="310" width="120" height="60" as="geometry" />
        </mxCell>
        <mxCell id="iTxTnmrPjzGDXyez09_j-56" value="" style="edgeStyle=orthogonalEdgeStyle;rounded=0;orthogonalLoop=1;jettySize=auto;html=1;" edge="1" parent="WIyWlLk6GJQsqaUBKTNV-1" source="iTxTnmrPjzGDXyez09_j-9" target="iTxTnmrPjzGDXyez09_j-55">
          <mxGeometry relative="1" as="geometry" />
        </mxCell>
        <mxCell id="iTxTnmrPjzGDXyez09_j-9" value="通过前台办理（手机号搜索或通过发卡器刷卡找到需扣费卡）" style="whiteSpace=wrap;html=1;rounded=0;" vertex="1" parent="WIyWlLk6GJQsqaUBKTNV-1">
          <mxGeometry x="198" y="230" width="120" height="60" as="geometry" />
        </mxCell>
        <mxCell id="iTxTnmrPjzGDXyez09_j-60" value="" style="edgeStyle=orthogonalEdgeStyle;rounded=0;orthogonalLoop=1;jettySize=auto;html=1;" edge="1" parent="WIyWlLk6GJQsqaUBKTNV-1" source="iTxTnmrPjzGDXyez09_j-28" target="iTxTnmrPjzGDXyez09_j-59">
          <mxGeometry relative="1" as="geometry" />
        </mxCell>
        <mxCell id="iTxTnmrPjzGDXyez09_j-28" value="通过台式自主机办理（通过人脸识别选择扣费卡或刷卡）" style="whiteSpace=wrap;html=1;rounded=0;" vertex="1" parent="WIyWlLk6GJQsqaUBKTNV-1">
          <mxGeometry x="198" y="389" width="120" height="60" as="geometry" />
        </mxCell>
        <mxCell id="iTxTnmrPjzGDXyez09_j-64" style="edgeStyle=orthogonalEdgeStyle;rounded=0;orthogonalLoop=1;jettySize=auto;html=1;exitX=1;exitY=0.5;exitDx=0;exitDy=0;entryX=0.5;entryY=0;entryDx=0;entryDy=0;" edge="1" parent="WIyWlLk6GJQsqaUBKTNV-1" source="iTxTnmrPjzGDXyez09_j-55" target="iTxTnmrPjzGDXyez09_j-62">
          <mxGeometry relative="1" as="geometry" />
        </mxCell>
        <mxCell id="iTxTnmrPjzGDXyez09_j-55" value="&lt;div style=&quot;&quot;&gt;&lt;span style=&quot;background-color: initial;&quot;&gt;选择非持卡人入场方式：&lt;/span&gt;&lt;/div&gt;1.采集人脸&lt;br&gt;2.临时卡" style="whiteSpace=wrap;html=1;rounded=0;align=left;" vertex="1" parent="WIyWlLk6GJQsqaUBKTNV-1">
          <mxGeometry x="359" y="230" width="120" height="60" as="geometry" />
        </mxCell>
        <mxCell id="iTxTnmrPjzGDXyez09_j-63" value="" style="edgeStyle=orthogonalEdgeStyle;rounded=0;orthogonalLoop=1;jettySize=auto;html=1;" edge="1" parent="WIyWlLk6GJQsqaUBKTNV-1" source="iTxTnmrPjzGDXyez09_j-57" target="iTxTnmrPjzGDXyez09_j-62">
          <mxGeometry relative="1" as="geometry" />
        </mxCell>
        <mxCell id="iTxTnmrPjzGDXyez09_j-57" value="&lt;div style=&quot;border-color: var(--border-color);&quot;&gt;选择非持卡人入场方式：&lt;/div&gt;&lt;span style=&quot;&quot;&gt;1.采集人脸&lt;/span&gt;&lt;br style=&quot;border-color: var(--border-color);&quot;&gt;&lt;span style=&quot;&quot;&gt;2.临时卡&lt;/span&gt;" style="whiteSpace=wrap;html=1;rounded=0;align=left;" vertex="1" parent="WIyWlLk6GJQsqaUBKTNV-1">
          <mxGeometry x="359" y="310" width="120" height="60" as="geometry" />
        </mxCell>
        <mxCell id="iTxTnmrPjzGDXyez09_j-65" style="edgeStyle=orthogonalEdgeStyle;rounded=0;orthogonalLoop=1;jettySize=auto;html=1;exitX=1;exitY=0.5;exitDx=0;exitDy=0;entryX=0.5;entryY=1;entryDx=0;entryDy=0;" edge="1" parent="WIyWlLk6GJQsqaUBKTNV-1" source="iTxTnmrPjzGDXyez09_j-59" target="iTxTnmrPjzGDXyez09_j-62">
          <mxGeometry relative="1" as="geometry" />
        </mxCell>
        <mxCell id="iTxTnmrPjzGDXyez09_j-59" value="&lt;div style=&quot;border-color: var(--border-color);&quot;&gt;选择非持卡人入场方式：&lt;/div&gt;&lt;span style=&quot;&quot;&gt;1.采集人脸&lt;/span&gt;" style="whiteSpace=wrap;html=1;rounded=0;align=left;" vertex="1" parent="WIyWlLk6GJQsqaUBKTNV-1">
          <mxGeometry x="359" y="389" width="122" height="60" as="geometry" />
        </mxCell>
        <mxCell id="iTxTnmrPjzGDXyez09_j-67" value="" style="edgeStyle=orthogonalEdgeStyle;rounded=0;orthogonalLoop=1;jettySize=auto;html=1;" edge="1" parent="WIyWlLk6GJQsqaUBKTNV-1" source="iTxTnmrPjzGDXyez09_j-62" target="iTxTnmrPjzGDXyez09_j-66">
          <mxGeometry relative="1" as="geometry" />
        </mxCell>
        <mxCell id="iTxTnmrPjzGDXyez09_j-62" value="&lt;div style=&quot;&quot;&gt;&lt;span style=&quot;background-color: initial;&quot;&gt;持卡人入场：刷游泳卡或人脸通过闸机入场&lt;/span&gt;&lt;/div&gt;&lt;div style=&quot;&quot;&gt;&lt;span style=&quot;background-color: initial;&quot;&gt;非持卡人入场：刷临时卡或临时人脸通过闸机入场&lt;/span&gt;&lt;/div&gt;" style="whiteSpace=wrap;html=1;rounded=0;align=left;" vertex="1" parent="WIyWlLk6GJQsqaUBKTNV-1">
          <mxGeometry x="507" y="310" width="172" height="60" as="geometry" />
        </mxCell>
        <mxCell id="iTxTnmrPjzGDXyez09_j-72" value="" style="edgeStyle=orthogonalEdgeStyle;rounded=0;orthogonalLoop=1;jettySize=auto;html=1;" edge="1" parent="WIyWlLk6GJQsqaUBKTNV-1" source="iTxTnmrPjzGDXyez09_j-66" target="iTxTnmrPjzGDXyez09_j-71">
          <mxGeometry relative="1" as="geometry" />
        </mxCell>
        <mxCell id="iTxTnmrPjzGDXyez09_j-66" value="通过刷人脸方式在储物柜进行衣物存放" style="whiteSpace=wrap;html=1;align=left;rounded=0;" vertex="1" parent="WIyWlLk6GJQsqaUBKTNV-1">
          <mxGeometry x="717" y="310" width="120" height="60" as="geometry" />
        </mxCell>
        <mxCell id="iTxTnmrPjzGDXyez09_j-68" value="此处如果刷卡可进入，会出现卡无法自由携带问题，建议储物柜不要和系统相连" style="shape=note;whiteSpace=wrap;html=1;backgroundOutline=1;fontColor=#000000;darkOpacity=0.05;fillColor=#FFF9B2;strokeColor=none;fillStyle=solid;direction=west;gradientDirection=north;gradientColor=#FFF2A1;shadow=1;size=20;pointerEvents=1;" vertex="1" parent="WIyWlLk6GJQsqaUBKTNV-1">
          <mxGeometry x="697" y="210" width="140" height="80" as="geometry" />
        </mxCell>
        <mxCell id="iTxTnmrPjzGDXyez09_j-91" style="edgeStyle=orthogonalEdgeStyle;rounded=0;orthogonalLoop=1;jettySize=auto;html=1;exitX=0;exitY=0.5;exitDx=0;exitDy=0;" edge="1" parent="WIyWlLk6GJQsqaUBKTNV-1" source="iTxTnmrPjzGDXyez09_j-71" target="iTxTnmrPjzGDXyez09_j-85">
          <mxGeometry relative="1" as="geometry" />
        </mxCell>
        <mxCell id="iTxTnmrPjzGDXyez09_j-71" value="运动结束出场，闸机口验证出场" style="whiteSpace=wrap;html=1;align=left;rounded=0;" vertex="1" parent="WIyWlLk6GJQsqaUBKTNV-1">
          <mxGeometry x="717" y="471" width="120" height="60" as="geometry" />
        </mxCell>
        <mxCell id="iTxTnmrPjzGDXyez09_j-83" value="" style="edgeStyle=orthogonalEdgeStyle;rounded=0;orthogonalLoop=1;jettySize=auto;html=1;" edge="1" parent="WIyWlLk6GJQsqaUBKTNV-1" target="iTxTnmrPjzGDXyez09_j-87">
          <mxGeometry relative="1" as="geometry">
            <mxPoint x="583" y="532" as="sourcePoint" />
          </mxGeometry>
        </mxCell>
        <mxCell id="iTxTnmrPjzGDXyez09_j-84" style="edgeStyle=orthogonalEdgeStyle;rounded=0;orthogonalLoop=1;jettySize=auto;html=1;exitX=0;exitY=0.5;exitDx=0;exitDy=0;" edge="1" parent="WIyWlLk6GJQsqaUBKTNV-1" source="iTxTnmrPjzGDXyez09_j-85" target="iTxTnmrPjzGDXyez09_j-89">
          <mxGeometry relative="1" as="geometry" />
        </mxCell>
        <mxCell id="iTxTnmrPjzGDXyez09_j-85" value="判断是否超时？" style="rhombus;whiteSpace=wrap;html=1;rounded=0;" vertex="1" parent="WIyWlLk6GJQsqaUBKTNV-1">
          <mxGeometry x="543" y="461" width="80" height="80" as="geometry" />
        </mxCell>
        <mxCell id="iTxTnmrPjzGDXyez09_j-86" value="" style="edgeStyle=orthogonalEdgeStyle;rounded=0;orthogonalLoop=1;jettySize=auto;html=1;" edge="1" parent="WIyWlLk6GJQsqaUBKTNV-1" source="iTxTnmrPjzGDXyez09_j-87" target="iTxTnmrPjzGDXyez09_j-89">
          <mxGeometry relative="1" as="geometry" />
        </mxCell>
        <mxCell id="iTxTnmrPjzGDXyez09_j-87" value="持卡人或非持卡人前台处理超时异常" style="whiteSpace=wrap;html=1;rounded=0;" vertex="1" parent="WIyWlLk6GJQsqaUBKTNV-1">
          <mxGeometry x="523" y="570" width="120" height="60" as="geometry" />
        </mxCell>
        <mxCell id="iTxTnmrPjzGDXyez09_j-88" value="超时" style="text;html=1;align=center;verticalAlign=middle;resizable=0;points=[];autosize=1;strokeColor=none;fillColor=none;" vertex="1" parent="WIyWlLk6GJQsqaUBKTNV-1">
          <mxGeometry x="576" y="536" width="50" height="30" as="geometry" />
        </mxCell>
        <mxCell id="iTxTnmrPjzGDXyez09_j-89" value="持卡人出场：刷游泳卡或人脸通过闸机入场&lt;br style=&quot;border-color: var(--border-color);&quot;&gt;&lt;span style=&quot;&quot;&gt;非持卡人出场：闸机回收临时卡或刷人脸通过闸机&lt;/span&gt;" style="whiteSpace=wrap;html=1;rounded=0;align=left;" vertex="1" parent="WIyWlLk6GJQsqaUBKTNV-1">
          <mxGeometry x="243" y="570" width="200" height="60" as="geometry" />
        </mxCell>
        <mxCell id="iTxTnmrPjzGDXyez09_j-90" value="未超时" style="text;html=1;align=center;verticalAlign=middle;resizable=0;points=[];autosize=1;strokeColor=none;fillColor=none;" vertex="1" parent="WIyWlLk6GJQsqaUBKTNV-1">
          <mxGeometry x="423" y="470" width="60" height="30" as="geometry" />
        </mxCell>
      </root>
    </mxGraphModel>
  </diagram>
</mxfile>
